# xmcd
#
# Track frame offsets: 
#        150
#        15725
#        31465
#        47695
#        65435
#        82262
#        94162
#        109444
#        123711
#        141066
#        154736
#        167923
#        185310
#        195635
#
# Disc length: 2860 seconds
#
# Revision: 3
# Processed by: cddbd v1.5.2PL0 Copyright (c) Steve Scherf et al.
# Submitted via: ExactAudioCopy v0.95a5
#
DISCID=c60b2a0e
DTITLE=Various Artist - HOT HITS COUNTRY VOL 53
DYEAR=1900
DGENRE=Country
TTITLE0=David Lee Murphy - Every Time I Get Around You
TTITLE1=Collin Raye - I Think About You
TTITLE2=Ricochet - What Do I Know
TTITLE3=Terri Clark - If I Were You
TTITLE4=Bryan White - I'm Not Supposed To Love You Anymore
TTITLE5=Joe Diffie - C-O-U-N-T-R-Y
TTITLE6=Paul Brandt - My Heart Has A History
TTITLE7=John Berry - Every Time My Heart Calls Your Name
TTITLE8=Toby Keith - Does That Blue Moon Ever Shine On You
TTITLE9=John Anderson - Long Hard Lesson Learned
TTITLE10=Shenandoah - All Over But The Shoutin
TTITLE11=Chely Wright - The Love That We Lost
TTITLE12=Ty Herndon - In Your Face
TTITLE13=Reba McEntire - Starting Over Again
EXTD=
EXTT0=
EXTT1=
EXTT2=
EXTT3=
EXTT4=
EXTT5=
EXTT6=
EXTT7=
EXTT8=
EXTT9=
EXTT10=
EXTT11=
EXTT12=
EXTT13=
PLAYORDER=
